<svg width="123" height="43" viewBox="0 0 123 43" fill="none" xmlns="http://www.w3.org/2000/svg">
<path d="M22.028 42H1.96V39.506C2.92667 39.0807 3.89333 38.7133 4.86 38.404C5.86533 38.056 6.87067 37.766 7.876 37.534V10.912L8.108 7.49C7.02533 7.838 5.904 8.07 4.744 8.186C3.584 8.302 2.38533 8.34066 1.148 8.302L0.858 6.156C2.90733 5.61466 5.13067 4.88 7.528 3.952C9.964 3.024 12.2067 1.94133 14.256 0.703999H16.228V37.534C17.1947 37.766 18.1613 38.056 19.128 38.404C20.0947 38.7133 21.0613 39.0807 22.028 39.506V42ZM29.1289 21.7C29.1289 18.22 29.4963 15.1847 30.2309 12.594C31.0043 9.96466 32.0483 7.78 33.3629 6.04C34.7163 4.26133 36.3016 2.92733 38.1189 2.038C39.9749 1.14867 41.9856 0.703999 44.1509 0.703999C48.7909 0.703999 52.4643 2.46333 55.1709 5.982C57.8776 9.462 59.2309 14.7013 59.2309 21.7C59.2309 25.18 58.8443 28.2347 58.0709 30.864C57.3363 33.4547 56.2729 35.6393 54.8809 37.418C53.5276 39.158 51.9036 40.4727 50.0089 41.362C48.1143 42.2513 46.0456 42.696 43.8029 42.696C41.4443 42.696 39.3563 42.232 37.5389 41.304C35.7216 40.3373 34.1749 38.9647 32.8989 37.186C31.6616 35.3687 30.7143 33.1647 30.0569 30.574C29.4383 27.9833 29.1289 25.0253 29.1289 21.7ZM37.8289 21.7C37.8289 24.484 37.9063 26.978 38.0609 29.182C38.2543 31.386 38.5829 33.2613 39.0469 34.808C39.5109 36.316 40.1103 37.476 40.8449 38.288C41.6183 39.1 42.5849 39.506 43.7449 39.506C45.0983 39.506 46.2003 39.1773 47.0509 38.52C47.9403 37.8627 48.6363 36.8187 49.1389 35.388C49.6803 33.9573 50.0476 32.1207 50.2409 29.878C50.4343 27.6353 50.5309 24.9093 50.5309 21.7C50.5309 18.916 50.4536 16.422 50.2989 14.218C50.1443 12.014 49.8349 10.158 49.3709 8.65C48.9456 7.10333 48.3076 5.924 47.4569 5.112C46.6449 4.3 45.5429 3.894 44.1509 3.894C42.9136 3.894 41.8889 4.22267 41.0769 4.88C40.2649 5.53733 39.6076 6.58133 39.1049 8.012C38.6409 9.44267 38.3123 11.2987 38.1189 13.58C37.9256 15.8227 37.8289 18.5293 37.8289 21.7ZM61.9238 21.7C61.9238 18.22 62.2912 15.1847 63.0258 12.594C63.7992 9.96466 64.8432 7.78 66.1578 6.04C67.5112 4.26133 69.0965 2.92733 70.9138 2.038C72.7698 1.14867 74.7805 0.703999 76.9458 0.703999C81.5858 0.703999 85.2592 2.46333 87.9658 5.982C90.6725 9.462 92.0258 14.7013 92.0258 21.7C92.0258 25.18 91.6392 28.2347 90.8658 30.864C90.1312 33.4547 89.0678 35.6393 87.6758 37.418C86.3225 39.158 84.6985 40.4727 82.8038 41.362C80.9092 42.2513 78.8405 42.696 76.5978 42.696C74.2392 42.696 72.1512 42.232 70.3338 41.304C68.5165 40.3373 66.9698 38.9647 65.6938 37.186C64.4565 35.3687 63.5092 33.1647 62.8518 30.574C62.2332 27.9833 61.9238 25.0253 61.9238 21.7ZM70.6238 21.7C70.6238 24.484 70.7012 26.978 70.8558 29.182C71.0492 31.386 71.3778 33.2613 71.8418 34.808C72.3058 36.316 72.9052 37.476 73.6398 38.288C74.4132 39.1 75.3798 39.506 76.5398 39.506C77.8932 39.506 78.9952 39.1773 79.8458 38.52C80.7352 37.8627 81.4312 36.8187 81.9338 35.388C82.4752 33.9573 82.8425 32.1207 83.0358 29.878C83.2292 27.6353 83.3258 24.9093 83.3258 21.7C83.3258 18.916 83.2485 16.422 83.0938 14.218C82.9392 12.014 82.6298 10.158 82.1658 8.65C81.7405 7.10333 81.1025 5.924 80.2518 5.112C79.4398 4.3 78.3378 3.894 76.9458 3.894C75.7085 3.894 74.6838 4.22267 73.8718 4.88C73.0598 5.53733 72.4025 6.58133 71.8998 8.012C71.4358 9.44267 71.1072 11.2987 70.9138 13.58C70.7205 15.8227 70.6238 18.5293 70.6238 21.7ZM96.6908 19.728H107.421V8.36H112.061V19.728H122.791V24.368H112.061V36.084H107.421V24.368H96.6908V19.728Z" fill="#64BD22"/>
</svg>
