<svg width="126" height="45" viewBox="0 0 126 45" fill="none" xmlns="http://www.w3.org/2000/svg">
<path d="M6.178 16.276H4.206C3.974 15.696 3.70333 15.0193 3.394 14.246C3.12333 13.4727 2.83333 12.6607 2.524 11.81C2.21467 10.9593 1.92467 10.128 1.654 9.316C1.38333 8.46533 1.17067 7.692 1.016 6.996C2.36933 5.836 4.09 4.83066 6.178 3.98C8.30467 3.12933 10.876 2.704 13.892 2.704C16.0187 2.704 17.8553 2.97467 19.402 3.516C20.9487 4.05733 22.2247 4.81133 23.23 5.778C24.274 6.74467 25.028 7.866 25.492 9.142C25.9947 10.418 26.246 11.7907 26.246 13.26C26.246 15.6187 25.7047 17.8613 24.622 19.988C23.5393 22.076 22.2053 24.048 20.62 25.904C19.0347 27.7213 17.3333 29.4227 15.516 31.008C13.6987 32.5547 12.0553 33.966 10.586 35.242L7.57 37.272V37.504L11.108 37.156H21.084L23.926 30.66H25.898C26.014 31.588 26.13 32.6707 26.246 33.908C26.4007 35.1453 26.536 36.402 26.652 37.678C26.768 38.9153 26.8647 40.114 26.942 41.274C27.0193 42.3953 27.058 43.304 27.058 44H0.494V40.288C1.49933 39.3987 2.64 38.374 3.916 37.214C5.192 36.0153 6.48733 34.72 7.802 33.328C9.11667 31.8973 10.412 30.3893 11.688 28.804C12.964 27.2187 14.1047 25.614 15.11 23.99C16.1153 22.3273 16.908 20.6453 17.488 18.944C18.1067 17.2427 18.416 15.58 18.416 13.956C18.416 11.8293 17.836 10.1087 16.676 8.794C15.5547 7.44066 13.95 6.764 11.862 6.764C11.2047 6.764 10.6053 6.80267 10.064 6.88C9.56133 6.95733 8.98133 7.09267 8.324 7.286L6.178 16.276ZM57.1849 0.209997H59.1569C59.1569 0.789999 59.1376 1.544 59.0989 2.472C59.0603 3.4 58.9829 4.34733 58.8669 5.314C58.7509 6.28066 58.6156 7.20867 58.4609 8.098C58.3063 8.94867 58.1516 9.606 57.9969 10.07H42.1049L41.0609 18.364H45.8749C47.9629 18.364 49.8576 18.654 51.5589 19.234C53.2603 19.7753 54.7103 20.5873 55.9089 21.67C57.1076 22.714 58.0356 24.0093 58.6929 25.556C59.3503 27.064 59.6789 28.804 59.6789 30.776C59.6789 32.98 59.2536 34.952 58.4029 36.692C57.5909 38.3933 56.4696 39.8433 55.0389 41.042C53.6083 42.202 51.9263 43.1107 49.9929 43.768C48.0596 44.3867 45.9716 44.696 43.7289 44.696C41.4863 44.696 39.4369 44.348 37.5809 43.652C35.7249 42.9173 34.2363 42.1053 33.1149 41.216L35.5509 35.474H37.2329C37.5036 35.7447 37.8129 36.0927 38.1609 36.518C38.5089 36.9433 38.8763 37.388 39.2629 37.852C39.6496 38.316 40.0169 38.78 40.3649 39.244C40.7129 39.708 41.0223 40.114 41.2929 40.462C41.6796 40.6167 42.0276 40.7327 42.3369 40.81C42.6849 40.8873 43.1296 40.926 43.6709 40.926C44.8309 40.926 45.9136 40.7327 46.9189 40.346C47.9243 39.9207 48.7749 39.3407 49.4709 38.606C50.2056 37.8713 50.7856 37.0013 51.2109 35.996C51.6363 34.952 51.8489 33.8113 51.8489 32.574C51.8489 31.2207 51.5783 30.0413 51.0369 29.036C50.5343 27.992 49.8383 27.1413 48.9489 26.484C48.0596 25.8267 47.0156 25.3433 45.8169 25.034C44.6183 24.686 43.3616 24.512 42.0469 24.512L37.0009 24.57L39.3209 3.4H54.4589L57.1849 0.209997ZM64.9238 23.7C64.9238 20.22 65.2912 17.1847 66.0258 14.594C66.7992 11.9647 67.8432 9.78 69.1578 8.04C70.5112 6.26133 72.0965 4.92733 73.9138 4.038C75.7698 3.14867 77.7805 2.704 79.9458 2.704C84.5858 2.704 88.2592 4.46333 90.9658 7.982C93.6725 11.462 95.0258 16.7013 95.0258 23.7C95.0258 27.18 94.6392 30.2347 93.8658 32.864C93.1312 35.4547 92.0678 37.6393 90.6758 39.418C89.3225 41.158 87.6985 42.4727 85.8038 43.362C83.9092 44.2513 81.8405 44.696 79.5978 44.696C77.2392 44.696 75.1512 44.232 73.3338 43.304C71.5165 42.3373 69.9698 40.9647 68.6938 39.186C67.4565 37.3687 66.5092 35.1647 65.8518 32.574C65.2332 29.9833 64.9238 27.0253 64.9238 23.7ZM73.6238 23.7C73.6238 26.484 73.7012 28.978 73.8558 31.182C74.0492 33.386 74.3778 35.2613 74.8418 36.808C75.3058 38.316 75.9052 39.476 76.6398 40.288C77.4132 41.1 78.3798 41.506 79.5398 41.506C80.8932 41.506 81.9952 41.1773 82.8458 40.52C83.7352 39.8627 84.4312 38.8187 84.9338 37.388C85.4752 35.9573 85.8425 34.1207 86.0358 31.878C86.2292 29.6353 86.3258 26.9093 86.3258 23.7C86.3258 20.916 86.2485 18.422 86.0938 16.218C85.9392 14.014 85.6298 12.158 85.1658 10.65C84.7405 9.10333 84.1025 7.924 83.2518 7.112C82.4398 6.3 81.3378 5.894 79.9458 5.894C78.7085 5.894 77.6838 6.22267 76.8718 6.88C76.0598 7.53733 75.4025 8.58133 74.8998 10.012C74.4358 11.4427 74.1072 13.2987 73.9138 15.58C73.7205 17.8227 73.6238 20.5293 73.6238 23.7ZM99.6908 21.728H110.421V10.36H115.061V21.728H125.791V26.368H115.061V38.084H110.421V26.368H99.6908V21.728Z" fill="#64BD22"/>
</svg>
