<svg width="176" height="43" viewBox="0 0 176 43" fill="none" xmlns="http://www.w3.org/2000/svg">
<path d="M11.906 38.926C12.7953 38.926 13.6653 38.7327 14.516 38.346C15.3667 37.9207 16.1207 37.3407 16.778 36.606C17.474 35.8713 18.0153 35.0013 18.402 33.996C18.8273 32.9907 19.04 31.908 19.04 30.748C19.04 29.4333 18.808 28.312 18.344 27.384C17.9187 26.4173 17.3387 25.6247 16.604 25.006C15.908 24.3873 15.096 23.9427 14.168 23.672C13.24 23.3627 12.312 23.208 11.384 23.208H8.02V20.888L16.72 9.52L18.692 7.49V7.258L15.56 7.606H6.802L4.54 13.522H2.568C2.37467 12.71 2.162 11.7433 1.93 10.622C1.73667 9.50066 1.54333 8.37933 1.35 7.258C1.19533 6.13667 1.06 5.054 0.944 4.01C0.866667 2.966 0.828 2.096 0.828 1.4H26.116V4.242L16.082 16.48L13.588 19.032V19.148L15.56 18.742C17.3773 18.8193 19.0013 19.1673 20.432 19.786C21.9013 20.366 23.1193 21.178 24.086 22.222C25.0913 23.2273 25.8453 24.4067 26.348 25.76C26.8893 27.1133 27.16 28.602 27.16 30.226C27.16 32.1593 26.7347 33.8993 25.884 35.446C25.072 36.9927 23.97 38.3073 22.578 39.39C21.186 40.4727 19.562 41.304 17.706 41.884C15.85 42.4253 13.8973 42.696 11.848 42.696C10.688 42.696 9.528 42.5993 8.368 42.406C7.208 42.2513 6.106 42.0193 5.062 41.71C4.05667 41.4007 3.12867 41.0333 2.278 40.608C1.466 40.1827 0.77 39.7187 0.19 39.216L2.336 33.184H4.018C4.25 33.4547 4.55933 33.822 4.946 34.286C5.37133 34.7113 5.79667 35.1753 6.222 35.678C6.686 36.1807 7.13067 36.6833 7.556 37.186C7.98133 37.6887 8.34867 38.114 8.658 38.462C9.04467 38.5393 9.47 38.636 9.934 38.752C10.4367 38.868 11.094 38.926 11.906 38.926ZM37.9729 14.276H36.0009C35.7689 13.696 35.4983 13.0193 35.1889 12.246C34.9183 11.4727 34.6283 10.6607 34.3189 9.81C34.0096 8.95933 33.7196 8.128 33.4489 7.316C33.1783 6.46533 32.9656 5.692 32.8109 4.996C34.1643 3.836 35.8849 2.83066 37.9729 1.98C40.0996 1.12933 42.6709 0.703999 45.6869 0.703999C47.8136 0.703999 49.6503 0.974666 51.1969 1.516C52.7436 2.05733 54.0196 2.81133 55.0249 3.778C56.0689 4.74467 56.8229 5.866 57.2869 7.142C57.7896 8.418 58.0409 9.79067 58.0409 11.26C58.0409 13.6187 57.4996 15.8613 56.4169 17.988C55.3343 20.076 54.0003 22.048 52.4149 23.904C50.8296 25.7213 49.1283 27.4227 47.3109 29.008C45.4936 30.5547 43.8503 31.966 42.3809 33.242L39.3649 35.272V35.504L42.9029 35.156H52.8789L55.7209 28.66H57.6929C57.8089 29.588 57.9249 30.6707 58.0409 31.908C58.1956 33.1453 58.3309 34.402 58.4469 35.678C58.5629 36.9153 58.6596 38.114 58.7369 39.274C58.8143 40.3953 58.8529 41.304 58.8529 42H32.2889V38.288C33.2943 37.3987 34.4349 36.374 35.7109 35.214C36.9869 34.0153 38.2823 32.72 39.5969 31.328C40.9116 29.8973 42.2069 28.3893 43.4829 26.804C44.7589 25.2187 45.8996 23.614 46.9049 21.99C47.9103 20.3273 48.7029 18.6453 49.2829 16.944C49.9016 15.2427 50.2109 13.58 50.2109 11.956C50.2109 9.82933 49.6309 8.10867 48.4709 6.794C47.3496 5.44066 45.7449 4.764 43.6569 4.764C42.9996 4.764 42.4003 4.80267 41.8589 4.88C41.3563 4.95733 40.7763 5.09267 40.1189 5.286L37.9729 14.276ZM79.5567 21.7C79.5567 18.22 79.924 15.1847 80.6587 12.594C81.432 9.96466 82.476 7.78 83.7907 6.04C85.144 4.26133 86.7293 2.92733 88.5467 2.038C90.4027 1.14867 92.4133 0.703999 94.5787 0.703999C99.2187 0.703999 102.892 2.46333 105.599 5.982C108.305 9.462 109.659 14.7013 109.659 21.7C109.659 25.18 109.272 28.2347 108.499 30.864C107.764 33.4547 106.701 35.6393 105.309 37.418C103.955 39.158 102.331 40.4727 100.437 41.362C98.542 42.2513 96.4733 42.696 94.2307 42.696C91.872 42.696 89.784 42.232 87.9667 41.304C86.1493 40.3373 84.6027 38.9647 83.3267 37.186C82.0893 35.3687 81.142 33.1647 80.4847 30.574C79.866 27.9833 79.5567 25.0253 79.5567 21.7ZM88.2567 21.7C88.2567 24.484 88.334 26.978 88.4887 29.182C88.682 31.386 89.0107 33.2613 89.4747 34.808C89.9387 36.316 90.538 37.476 91.2727 38.288C92.046 39.1 93.0127 39.506 94.1727 39.506C95.526 39.506 96.628 39.1773 97.4787 38.52C98.368 37.8627 99.064 36.8187 99.5667 35.388C100.108 33.9573 100.475 32.1207 100.669 29.878C100.862 27.6353 100.959 24.9093 100.959 21.7C100.959 18.916 100.881 16.422 100.727 14.218C100.572 12.014 100.263 10.158 99.7987 8.65C99.3733 7.10333 98.7353 5.924 97.8847 5.112C97.0727 4.3 95.9707 3.894 94.5787 3.894C93.3413 3.894 92.3167 4.22267 91.5047 4.88C90.6927 5.53733 90.0353 6.58133 89.5327 8.012C89.0687 9.44267 88.74 11.2987 88.5467 13.58C88.3533 15.8227 88.2567 18.5293 88.2567 21.7ZM112.352 21.7C112.352 18.22 112.719 15.1847 113.454 12.594C114.227 9.96466 115.271 7.78 116.586 6.04C117.939 4.26133 119.524 2.92733 121.342 2.038C123.198 1.14867 125.208 0.703999 127.374 0.703999C132.014 0.703999 135.687 2.46333 138.394 5.982C141.1 9.462 142.454 14.7013 142.454 21.7C142.454 25.18 142.067 28.2347 141.294 30.864C140.559 33.4547 139.496 35.6393 138.104 37.418C136.75 39.158 135.126 40.4727 133.232 41.362C131.337 42.2513 129.268 42.696 127.026 42.696C124.667 42.696 122.579 42.232 120.762 41.304C118.944 40.3373 117.398 38.9647 116.122 37.186C114.884 35.3687 113.937 33.1647 113.28 30.574C112.661 27.9833 112.352 25.0253 112.352 21.7ZM121.052 21.7C121.052 24.484 121.129 26.978 121.284 29.182C121.477 31.386 121.806 33.2613 122.27 34.808C122.734 36.316 123.333 37.476 124.068 38.288C124.841 39.1 125.808 39.506 126.968 39.506C128.321 39.506 129.423 39.1773 130.274 38.52C131.163 37.8627 131.859 36.8187 132.362 35.388C132.903 33.9573 133.27 32.1207 133.464 29.878C133.657 27.6353 133.754 24.9093 133.754 21.7C133.754 18.916 133.676 16.422 133.522 14.218C133.367 12.014 133.058 10.158 132.594 8.65C132.168 7.10333 131.53 5.924 130.68 5.112C129.868 4.3 128.766 3.894 127.374 3.894C126.136 3.894 125.112 4.22267 124.3 4.88C123.488 5.53733 122.83 6.58133 122.328 8.012C121.864 9.44267 121.535 11.2987 121.342 13.58C121.148 15.8227 121.052 18.5293 121.052 21.7ZM145.147 21.7C145.147 18.22 145.514 15.1847 146.249 12.594C147.022 9.96466 148.066 7.78 149.381 6.04C150.734 4.26133 152.319 2.92733 154.137 2.038C155.993 1.14867 158.003 0.703999 160.169 0.703999C164.809 0.703999 168.482 2.46333 171.189 5.982C173.895 9.462 175.249 14.7013 175.249 21.7C175.249 25.18 174.862 28.2347 174.089 30.864C173.354 33.4547 172.291 35.6393 170.899 37.418C169.545 39.158 167.921 40.4727 166.027 41.362C164.132 42.2513 162.063 42.696 159.821 42.696C157.462 42.696 155.374 42.232 153.557 41.304C151.739 40.3373 150.193 38.9647 148.917 37.186C147.679 35.3687 146.732 33.1647 146.075 30.574C145.456 27.9833 145.147 25.0253 145.147 21.7ZM153.847 21.7C153.847 24.484 153.924 26.978 154.079 29.182C154.272 31.386 154.601 33.2613 155.065 34.808C155.529 36.316 156.128 37.476 156.863 38.288C157.636 39.1 158.603 39.506 159.763 39.506C161.116 39.506 162.218 39.1773 163.069 38.52C163.958 37.8627 164.654 36.8187 165.157 35.388C165.698 33.9573 166.065 32.1207 166.259 29.878C166.452 27.6353 166.549 24.9093 166.549 21.7C166.549 18.916 166.471 16.422 166.317 14.218C166.162 12.014 165.853 10.158 165.389 8.65C164.963 7.10333 164.325 5.924 163.475 5.112C162.663 4.3 161.561 3.894 160.169 3.894C158.931 3.894 157.907 4.22267 157.095 4.88C156.283 5.53733 155.625 6.58133 155.123 8.012C154.659 9.44267 154.33 11.2987 154.137 13.58C153.943 15.8227 153.847 18.5293 153.847 21.7Z" fill="#64BD22"/>
</svg>
