<svg width="177" height="45" viewBox="0 0 177 45" fill="none" xmlns="http://www.w3.org/2000/svg">
<path d="M24.39 0.209997H26.362C26.362 0.789999 26.3427 1.544 26.304 2.472C26.2653 3.4 26.188 4.34733 26.072 5.314C25.956 6.28066 25.8207 7.20867 25.666 8.098C25.5113 8.94867 25.3567 9.606 25.202 10.07H9.31L8.266 18.364H13.08C15.168 18.364 17.0627 18.654 18.764 19.234C20.4653 19.7753 21.9153 20.5873 23.114 21.67C24.3127 22.714 25.2407 24.0093 25.898 25.556C26.5553 27.064 26.884 28.804 26.884 30.776C26.884 32.98 26.4587 34.952 25.608 36.692C24.796 38.3933 23.6747 39.8433 22.244 41.042C20.8133 42.202 19.1313 43.1107 17.198 43.768C15.2647 44.3867 13.1767 44.696 10.934 44.696C8.69133 44.696 6.642 44.348 4.786 43.652C2.93 42.9173 1.44133 42.1053 0.32 41.216L2.756 35.474H4.438C4.70867 35.7447 5.018 36.0927 5.366 36.518C5.714 36.9433 6.08133 37.388 6.468 37.852C6.85467 38.316 7.222 38.78 7.57 39.244C7.918 39.708 8.22733 40.114 8.498 40.462C8.88467 40.6167 9.23267 40.7327 9.542 40.81C9.89 40.8873 10.3347 40.926 10.876 40.926C12.036 40.926 13.1187 40.7327 14.124 40.346C15.1293 39.9207 15.98 39.3407 16.676 38.606C17.4107 37.8713 17.9907 37.0013 18.416 35.996C18.8413 34.952 19.054 33.8113 19.054 32.574C19.054 31.2207 18.7833 30.0413 18.242 29.036C17.7393 27.992 17.0433 27.1413 16.154 26.484C15.2647 25.8267 14.2207 25.3433 13.022 25.034C11.8233 24.686 10.5667 24.512 9.252 24.512L4.206 24.57L6.526 3.4H21.664L24.39 0.209997ZM32.1289 23.7C32.1289 20.22 32.4963 17.1847 33.2309 14.594C34.0043 11.9647 35.0483 9.78 36.3629 8.04C37.7163 6.26133 39.3016 4.92733 41.1189 4.038C42.9749 3.14867 44.9856 2.704 47.1509 2.704C51.7909 2.704 55.4643 4.46333 58.1709 7.982C60.8776 11.462 62.2309 16.7013 62.2309 23.7C62.2309 27.18 61.8443 30.2347 61.0709 32.864C60.3363 35.4547 59.2729 37.6393 57.8809 39.418C56.5276 41.158 54.9036 42.4727 53.0089 43.362C51.1143 44.2513 49.0456 44.696 46.8029 44.696C44.4443 44.696 42.3563 44.232 40.5389 43.304C38.7216 42.3373 37.1749 40.9647 35.8989 39.186C34.6616 37.3687 33.7143 35.1647 33.0569 32.574C32.4383 29.9833 32.1289 27.0253 32.1289 23.7ZM40.8289 23.7C40.8289 26.484 40.9063 28.978 41.0609 31.182C41.2543 33.386 41.5829 35.2613 42.0469 36.808C42.5109 38.316 43.1103 39.476 43.8449 40.288C44.6183 41.1 45.5849 41.506 46.7449 41.506C48.0983 41.506 49.2003 41.1773 50.0509 40.52C50.9403 39.8627 51.6363 38.8187 52.1389 37.388C52.6803 35.9573 53.0476 34.1207 53.2409 31.878C53.4343 29.6353 53.5309 26.9093 53.5309 23.7C53.5309 20.916 53.4536 18.422 53.2989 16.218C53.1443 14.014 52.8349 12.158 52.3709 10.65C51.9456 9.10333 51.3076 7.924 50.4569 7.112C49.6449 6.3 48.5429 5.894 47.1509 5.894C45.9136 5.894 44.8889 6.22267 44.0769 6.88C43.2649 7.53733 42.6076 8.58133 42.1049 10.012C41.6409 11.4427 41.3123 13.2987 41.1189 15.58C40.9256 17.8227 40.8289 20.5293 40.8289 23.7ZM80.5567 23.7C80.5567 20.22 80.924 17.1847 81.6587 14.594C82.432 11.9647 83.476 9.78 84.7907 8.04C86.144 6.26133 87.7293 4.92733 89.5467 4.038C91.4027 3.14867 93.4133 2.704 95.5787 2.704C100.219 2.704 103.892 4.46333 106.599 7.982C109.305 11.462 110.659 16.7013 110.659 23.7C110.659 27.18 110.272 30.2347 109.499 32.864C108.764 35.4547 107.701 37.6393 106.309 39.418C104.955 41.158 103.331 42.4727 101.437 43.362C99.542 44.2513 97.4733 44.696 95.2307 44.696C92.872 44.696 90.784 44.232 88.9667 43.304C87.1493 42.3373 85.6027 40.9647 84.3267 39.186C83.0893 37.3687 82.142 35.1647 81.4847 32.574C80.866 29.9833 80.5567 27.0253 80.5567 23.7ZM89.2567 23.7C89.2567 26.484 89.334 28.978 89.4887 31.182C89.682 33.386 90.0107 35.2613 90.4747 36.808C90.9387 38.316 91.538 39.476 92.2727 40.288C93.046 41.1 94.0127 41.506 95.1727 41.506C96.526 41.506 97.628 41.1773 98.4787 40.52C99.368 39.8627 100.064 38.8187 100.567 37.388C101.108 35.9573 101.475 34.1207 101.669 31.878C101.862 29.6353 101.959 26.9093 101.959 23.7C101.959 20.916 101.881 18.422 101.727 16.218C101.572 14.014 101.263 12.158 100.799 10.65C100.373 9.10333 99.7353 7.924 98.8847 7.112C98.0727 6.3 96.9707 5.894 95.5787 5.894C94.3413 5.894 93.3167 6.22267 92.5047 6.88C91.6927 7.53733 91.0353 8.58133 90.5327 10.012C90.0687 11.4427 89.74 13.2987 89.5467 15.58C89.3533 17.8227 89.2567 20.5293 89.2567 23.7ZM113.352 23.7C113.352 20.22 113.719 17.1847 114.454 14.594C115.227 11.9647 116.271 9.78 117.586 8.04C118.939 6.26133 120.524 4.92733 122.342 4.038C124.198 3.14867 126.208 2.704 128.374 2.704C133.014 2.704 136.687 4.46333 139.394 7.982C142.1 11.462 143.454 16.7013 143.454 23.7C143.454 27.18 143.067 30.2347 142.294 32.864C141.559 35.4547 140.496 37.6393 139.104 39.418C137.75 41.158 136.126 42.4727 134.232 43.362C132.337 44.2513 130.268 44.696 128.026 44.696C125.667 44.696 123.579 44.232 121.762 43.304C119.944 42.3373 118.398 40.9647 117.122 39.186C115.884 37.3687 114.937 35.1647 114.28 32.574C113.661 29.9833 113.352 27.0253 113.352 23.7ZM122.052 23.7C122.052 26.484 122.129 28.978 122.284 31.182C122.477 33.386 122.806 35.2613 123.27 36.808C123.734 38.316 124.333 39.476 125.068 40.288C125.841 41.1 126.808 41.506 127.968 41.506C129.321 41.506 130.423 41.1773 131.274 40.52C132.163 39.8627 132.859 38.8187 133.362 37.388C133.903 35.9573 134.27 34.1207 134.464 31.878C134.657 29.6353 134.754 26.9093 134.754 23.7C134.754 20.916 134.676 18.422 134.522 16.218C134.367 14.014 134.058 12.158 133.594 10.65C133.168 9.10333 132.53 7.924 131.68 7.112C130.868 6.3 129.766 5.894 128.374 5.894C127.136 5.894 126.112 6.22267 125.3 6.88C124.488 7.53733 123.83 8.58133 123.328 10.012C122.864 11.4427 122.535 13.2987 122.342 15.58C122.148 17.8227 122.052 20.5293 122.052 23.7ZM146.147 23.7C146.147 20.22 146.514 17.1847 147.249 14.594C148.022 11.9647 149.066 9.78 150.381 8.04C151.734 6.26133 153.319 4.92733 155.137 4.038C156.993 3.14867 159.003 2.704 161.169 2.704C165.809 2.704 169.482 4.46333 172.189 7.982C174.895 11.462 176.249 16.7013 176.249 23.7C176.249 27.18 175.862 30.2347 175.089 32.864C174.354 35.4547 173.291 37.6393 171.899 39.418C170.545 41.158 168.921 42.4727 167.027 43.362C165.132 44.2513 163.063 44.696 160.821 44.696C158.462 44.696 156.374 44.232 154.557 43.304C152.739 42.3373 151.193 40.9647 149.917 39.186C148.679 37.3687 147.732 35.1647 147.075 32.574C146.456 29.9833 146.147 27.0253 146.147 23.7ZM154.847 23.7C154.847 26.484 154.924 28.978 155.079 31.182C155.272 33.386 155.601 35.2613 156.065 36.808C156.529 38.316 157.128 39.476 157.863 40.288C158.636 41.1 159.603 41.506 160.763 41.506C162.116 41.506 163.218 41.1773 164.069 40.52C164.958 39.8627 165.654 38.8187 166.157 37.388C166.698 35.9573 167.065 34.1207 167.259 31.878C167.452 29.6353 167.549 26.9093 167.549 23.7C167.549 20.916 167.471 18.422 167.317 16.218C167.162 14.014 166.853 12.158 166.389 10.65C165.963 9.10333 165.325 7.924 164.475 7.112C163.663 6.3 162.561 5.894 161.169 5.894C159.931 5.894 158.907 6.22267 158.095 6.88C157.283 7.53733 156.625 8.58133 156.123 10.012C155.659 11.4427 155.33 13.2987 155.137 15.58C154.943 17.8227 154.847 20.5293 154.847 23.7Z" fill="#64BD22"/>
</svg>
