<svg width="28" height="41" viewBox="0 0 28 41" fill="none" xmlns="http://www.w3.org/2000/svg">
<path d="M3.786 13.102H1.814C1.62067 12.29 1.42733 11.304 1.234 10.144C1.04067 8.94533 0.847333 7.74666 0.654 6.548C0.499334 5.34933 0.364 4.20867 0.248 3.126C0.132 2.00466 0.0740002 1.096 0.0740002 0.399997H27.218V3.126C25.13 6.374 23.3707 9.42867 21.94 12.29C20.5093 15.1513 19.3107 18.0513 18.344 20.99C17.3773 23.9287 16.5653 27.0027 15.908 30.212C15.2893 33.4213 14.748 37.0173 14.284 41H6.048C7.44 35.3933 9.238 30.0573 11.442 24.992C13.646 19.9267 16.256 14.8227 19.272 9.68L21.418 6.896L18.518 7.186H6.048L3.786 13.102Z" fill="#64BD22"/>
</svg>
