<svg width="88" height="86" viewBox="0 0 88 86" fill="none" xmlns="http://www.w3.org/2000/svg">
<path d="M17.373 74.6211C24.759 81.0781 34.4181 85.0001 45.0001 85.0001C68.1961 85.0001 87.0001 66.1951 87.0001 43.0001C87.0001 32.4191 83.078 22.759 76.621 15.373" stroke="#3FA9F5" stroke-miterlimit="10"/>
<path d="M61 30H52V28C52 25.243 49.757 23 47 23H41C38.243 23 36 25.243 36 28V30H27C24.243 30 22 32.243 22 35V54C22 56.757 24.243 59 27 59H61C63.757 59 66 56.757 66 54V35C66 32.243 63.757 30 61 30ZM38 28C38 26.346 39.346 25 41 25H47C48.654 25 50 26.346 50 28V30H38V28ZM64 54C64 55.654 62.654 57 61 57H27C25.346 57 24 55.654 24 54V35C24 33.346 25.346 32 27 32H61C62.654 32 64 33.346 64 35V54Z" fill="#3FA9F5"/>
<path d="M36 46H34V54H36V46Z" fill="#3FA9F5"/>
<path d="M42 43H40V54H42V43Z" fill="#3FA9F5"/>
<path d="M48 40H46V54H48V40Z" fill="#3FA9F5"/>
<path d="M54 37H52V54H54V37Z" fill="#3FA9F5"/>
<path d="M70.36 11.148C63.01 4.82801 53.455 1 43 1C19.804 1 1 19.805 1 43C1 53.455 4.82801 63.01 11.148 70.36" stroke="#70CF29" stroke-miterlimit="10"/>
</svg>
